<?xml version="1.0" encoding="utf-8"?>
<!-- Generator: Adobe Illustrator 19.0.0, SVG Export Plug-In . SVG Version: 6.00 Build 0)  -->
<svg version="1.1" id="Layer_1" xmlns="http://www.w3.org/2000/svg" xmlns:xlink="http://www.w3.org/1999/xlink" x="0px" y="0px"
	 viewBox="0 0 514.667 177.418" style="enable-background:new 0 0 514.667 177.418;" xml:space="preserve">
<style type="text/css">
	.st0{fill:#FFFFFF;}
</style>
<path id="XMLID_55_" class="st0" d="M234.946,87.498h-10.94V64.577h-0.208l-6.251,22.921h-12.553l-6.2-22.921h-0.261v22.921h-9.948
	V51.762h17.919l5.156,19.066h0.208l5.053-19.066h18.024V87.498z M269.395,59.993h-15.054v5.21h14.482v7.97h-14.482v5.782h15.054
	l1.041,8.544h-26.826V51.762h26.826L269.395,59.993z M267.026,88.852c-0.436,0.416-0.653,0.939-0.653,1.562
	c0,0.626,0.217,1.077,0.653,1.354c0.434,0.277,0.981,0.418,1.64,0.418c1.041,0,2.206-0.244,3.491-0.731l0.677,2.242
	c-1.667,0.834-3.473,1.249-5.417,1.249c-1.39,0-2.579-0.295-3.569-0.885c-0.99-0.592-1.484-1.547-1.484-2.865
	c0-0.729,0.259-1.39,0.78-1.98c0.521-0.59,1.198-1.164,2.032-1.719h3.647C268.059,87.983,267.46,88.436,267.026,88.852z
	 M305.167,54.94l-13.7,24.17h14.116v8.388h-29.744V84.32L289.8,60.098h-12.71v-8.336h28.077V54.94z M294.853,46.711h-7.918v-7.659
	h7.918V46.711z M336.232,52.935c2.275,1.129,4.072,2.832,5.393,5.105c1.319,2.275,1.978,5.062,1.978,8.361H333.34v-1.824
	c0-1.596-0.494-2.865-1.484-3.802c-0.99-0.939-2.23-1.408-3.723-1.408h-0.261c-1.459,0-2.691,0.505-3.699,1.511
	c-1.008,1.008-1.511,2.242-1.511,3.699v10.055c0,1.457,0.503,2.691,1.511,3.699s2.239,1.511,3.699,1.511h0.729
	c1.493,0,2.736-0.46,3.726-1.381c0.99-0.921,1.484-2.197,1.484-3.828v-1.719h9.793c0,3.055-0.632,5.73-1.902,8.021
	c-1.267,2.293-3.013,4.047-5.234,5.261c-2.224,1.216-4.74,1.824-7.554,1.824h-1.457c-3.093,0-5.896-0.626-8.414-1.875
	c-2.516-1.249-4.506-3.055-5.963-5.417c-1.459-2.362-2.188-5.14-2.188-8.334V66.87c0-3.022,0.738-5.721,2.213-8.102
	c1.475-2.378,3.446-4.226,5.914-5.547c2.465-1.319,5.138-1.98,8.021-1.98h1.459C331.378,51.241,333.957,51.806,336.232,52.935z
	 M377.249,54.94l-13.7,24.17h14.116v8.388h-29.744V84.32l13.961-24.222h-12.71v-8.336h28.077V54.94z M404.895,73.849v13.649h-10.886
	V73.849L382.13,51.762h12.294l5.366,11.722h0.259l5.471-11.722h11.199L404.895,73.849z M449.886,54.94l-13.7,24.17h14.116v8.388
	h-29.744V84.32l13.961-24.222h-12.71v-8.336h28.077V54.94z M444.52,40.875l0.105,0.156l-6.564,7.398h-6.146l4.74-7.554H444.52z
	 M487.486,87.498h-9.375l-10.732-15.472l-0.156-0.364v15.837h-10.053V51.762h9.168l10.94,15.837l0.103,0.364V51.762h10.106V87.498z
	 M514.667,59.421h-4.219v20.367h4.219v7.71h-19.482v-7.71h4.22V59.421h-4.22v-7.659h19.482V59.421z M210.619,116.435l11.199,21.41
	h-12.241l-6.2-12.918l-4.168,4.999v7.918h-10.625v-35.736h10.625v14.118l10.211-14.118h12.084L210.619,116.435z M263.207,137.846
	h-11.356l-2.137-6.356h-11.356l-2.083,6.356h-10.524l11.93-35.736h13.597L263.207,137.846z M243.933,113.103l-3.073,10.835h6.356
	l-3.022-10.835H243.933z M293.773,103.231c1.511,0.746,2.736,1.788,3.674,3.124c0.936,1.336,1.406,2.874,1.406,4.611
	c0,1.249-0.286,2.483-0.86,3.699c-0.572,1.216-1.345,2.257-2.318,3.124c-0.972,0.869-2.049,1.408-3.229,1.616v0.259
	c1.909,0.592,3.341,1.694,4.298,3.308c0.954,1.616,1.433,3.569,1.433,5.862c0,1.631,0.156,3.031,0.469,4.193
	c0.313,1.164,1.041,1.902,2.188,2.215v2.134c-1.598,0.659-3.683,0.99-6.251,0.99c-2.467,0-4.307-0.512-5.522-1.538
	c-1.216-1.024-1.824-2.751-1.824-5.183c0-2.291-0.286-4.141-0.858-5.547c-0.574-1.406-1.833-2.11-3.777-2.11h-3.022v13.856h-10.678
	v-35.736h20.054C290.656,102.109,292.263,102.485,293.773,103.231z M279.579,116.02h5.52c0.731,0,1.348-0.253,1.85-0.755
	c0.503-0.503,0.755-1.12,0.755-1.851v-0.521c0-0.729-0.253-1.345-0.755-1.848c-0.503-0.503-1.12-0.755-1.85-0.755h-5.52V116.02z
	 M353.423,137.846h-10.94v-22.921h-0.208l-6.251,22.921h-12.553l-6.2-22.921h-0.262v22.921h-9.948v-35.736h17.919l5.156,19.066
	h0.208l5.053-19.066h18.024V137.846z M387.872,110.341h-15.054v5.21H387.3v7.97h-14.482v5.782h15.054l1.041,8.544h-26.826v-35.736
	h26.826L387.872,110.341z M407.353,129.094h12.971l1.041,8.752h-25.055v-35.736h11.043V129.094z M455.272,132.766
	c-1.164,1.79-2.805,3.171-4.923,4.141c-2.119,0.972-4.584,1.459-7.395,1.459h-2.242c-2.812,0-5.279-0.487-7.395-1.459
	c-2.119-0.97-3.761-2.351-4.923-4.141c-1.164-1.788-1.745-3.88-1.745-6.276v-24.381h10.991v24.224c0,1.147,0.409,2.083,1.225,2.812
	c0.816,0.731,1.815,1.095,2.995,1.095c1.18,0,2.179-0.364,2.995-1.095c0.816-0.729,1.225-1.665,1.225-2.812v-24.224h10.94v24.381
	C457.017,128.886,456.434,130.978,455.272,132.766z M141.349,151.804C127.8,133.381,93.94,83.194,89.87,59.345h24.514V25.04H89.473
	V0H54.626v25.04H29.71v34.305h24.514c-4.075,23.844-37.924,74.031-51.474,92.46L0,155.542l3.941,2.45
	c20.466,12.708,44.015,19.426,68.111,19.426c24.091,0,47.64-6.718,68.106-19.426l3.941-2.45L141.349,151.804z M95.018,141.476
	l-7.775,12.862l-13.594-15.49l-9.997,11.206l-14.236-11.206l-22.058,0.846l24.602-17.274l13.149,3.116l6.944-11.796l14.054,17.354
	l8.062-7.858l19.176,18.667L95.018,141.476z M94.057,110.079l-8.043,6.552L72.052,97.21l-11.506,16.354l-8.311-7.238L28.16,129.982
	c2.611-4,5.335-8.268,8.053-12.67c17.909-29.05,26.991-49.994,26.991-62.256v-4.289H38.289V33.619h24.916V8.579h17.689v25.04h24.911
	v17.147H80.894v4.3c0,12.257,9.078,33.201,26.992,62.246c4.44,7.196,8.895,14.027,12.858,19.93L94.057,110.079z"/>
</svg>
